<svg xmlns="http://www.w3.org/2000/svg" xmlns:xlink="http://www.w3.org/1999/xlink" width="500" zoomAndPan="magnify" viewBox="0 0 375 374.999991" height="500" preserveAspectRatio="xMidYMid meet" version="1.0"><rect x="-37.5" width="450" fill="#ffffff" y="-37.499999" height="449.999989" fill-opacity="1"/><rect x="-37.5" width="450" fill="#ffffff" y="-37.499999" height="449.999989" fill-opacity="1"/><rect x="-37.5" width="450" fill="#ffffff" y="-37.499999" height="449.999989" fill-opacity="1"/><path fill="#004aad" d="M 187.5 155.652344 C 186.257812 155.652344 185.015625 155.710938 183.78125 155.835938 C 182.542969 155.957031 181.316406 156.136719 180.097656 156.382812 C 178.878906 156.625 177.675781 156.925781 176.484375 157.285156 C 175.296875 157.648438 174.125 158.066406 172.976562 158.539062 C 171.832031 159.015625 170.707031 159.546875 169.613281 160.132812 C 168.515625 160.71875 167.453125 161.355469 166.417969 162.046875 C 165.382812 162.738281 164.386719 163.476562 163.425781 164.265625 C 162.464844 165.054688 161.546875 165.886719 160.667969 166.765625 C 159.789062 167.644531 158.957031 168.566406 158.167969 169.523438 C 157.378906 170.484375 156.640625 171.484375 155.949219 172.515625 C 155.257812 173.550781 154.621094 174.613281 154.035156 175.710938 C 153.449219 176.804688 152.917969 177.929688 152.441406 179.078125 C 151.964844 180.226562 151.546875 181.394531 151.1875 182.582031 C 150.828125 183.773438 150.523438 184.976562 150.28125 186.195312 C 150.039062 187.414062 149.859375 188.640625 149.734375 189.878906 C 149.613281 191.117188 149.554688 192.355469 149.554688 193.597656 C 149.554688 194.839844 149.613281 196.082031 149.734375 197.316406 C 149.859375 198.554688 150.039062 199.78125 150.28125 201 C 150.523438 202.21875 150.828125 203.425781 151.1875 204.613281 C 151.546875 205.804688 151.964844 206.972656 152.441406 208.121094 C 152.917969 209.269531 153.449219 210.390625 154.035156 211.484375 C 154.621094 212.582031 155.257812 213.648438 155.949219 214.679688 C 156.640625 215.714844 157.378906 216.710938 158.167969 217.671875 C 158.957031 218.632812 159.789062 219.550781 160.667969 220.429688 C 161.546875 221.308594 162.464844 222.144531 163.425781 222.929688 C 164.386719 223.71875 165.382812 224.460938 166.417969 225.148438 C 167.453125 225.839844 168.515625 226.476562 169.613281 227.0625 C 170.707031 227.648438 171.832031 228.179688 172.976562 228.65625 C 174.125 229.132812 175.296875 229.550781 176.484375 229.910156 C 177.675781 230.269531 178.878906 230.574219 180.097656 230.816406 C 181.316406 231.058594 182.542969 231.238281 183.78125 231.363281 C 185.015625 231.484375 186.257812 231.542969 187.5 231.542969 C 188.742188 231.542969 189.984375 231.484375 191.21875 231.363281 C 192.457031 231.238281 193.683594 231.058594 194.902344 230.816406 C 196.121094 230.574219 197.324219 230.269531 198.515625 229.910156 C 199.703125 229.550781 200.875 229.132812 202.019531 228.65625 C 203.167969 228.179688 204.292969 227.648438 205.386719 227.0625 C 206.484375 226.476562 207.546875 225.839844 208.582031 225.148438 C 209.617188 224.460938 210.613281 223.71875 211.574219 222.929688 C 212.535156 222.144531 213.453125 221.308594 214.332031 220.429688 C 215.210938 219.550781 216.042969 218.632812 216.832031 217.671875 C 217.621094 216.710938 218.359375 215.714844 219.050781 214.679688 C 219.742188 213.648438 220.378906 212.582031 220.964844 211.484375 C 221.550781 210.390625 222.082031 209.269531 222.558594 208.121094 C 223.035156 206.972656 223.453125 205.804688 223.8125 204.613281 C 224.171875 203.425781 224.476562 202.21875 224.71875 201 C 224.960938 199.78125 225.140625 198.554688 225.265625 197.316406 C 225.386719 196.082031 225.445312 194.839844 225.445312 193.597656 C 225.445312 192.355469 225.382812 191.117188 225.261719 189.878906 C 225.136719 188.644531 224.953125 187.417969 224.710938 186.199219 C 224.46875 184.980469 224.164062 183.777344 223.804688 182.585938 C 223.441406 181.398438 223.023438 180.230469 222.546875 179.082031 C 222.070312 177.9375 221.539062 176.8125 220.953125 175.71875 C 220.367188 174.625 219.730469 173.558594 219.039062 172.527344 C 218.347656 171.492188 217.609375 170.496094 216.820312 169.535156 C 216.03125 168.578125 215.199219 167.65625 214.320312 166.777344 C 213.441406 165.898438 212.523438 165.066406 211.5625 164.277344 C 210.601562 163.488281 209.605469 162.75 208.570312 162.058594 C 207.539062 161.371094 206.476562 160.730469 205.378906 160.144531 C 204.285156 159.558594 203.164062 159.027344 202.015625 158.550781 C 200.867188 158.074219 199.699219 157.65625 198.511719 157.296875 C 197.320312 156.933594 196.117188 156.632812 194.898438 156.386719 C 193.683594 156.144531 192.453125 155.960938 191.21875 155.839844 C 189.980469 155.714844 188.742188 155.652344 187.5 155.652344 Z M 187.5 222.617188 C 186.550781 222.617188 185.601562 222.570312 184.65625 222.476562 C 183.710938 222.382812 182.769531 222.242188 181.839844 222.058594 C 180.90625 221.875 179.984375 221.640625 179.078125 221.367188 C 178.167969 221.089844 177.273438 220.769531 176.394531 220.40625 C 175.515625 220.042969 174.660156 219.636719 173.820312 219.191406 C 172.984375 218.742188 172.167969 218.253906 171.378906 217.726562 C 170.589844 217.199219 169.824219 216.632812 169.089844 216.027344 C 168.355469 215.425781 167.652344 214.789062 166.980469 214.117188 C 166.308594 213.445312 165.671875 212.742188 165.070312 212.007812 C 164.464844 211.273438 163.902344 210.511719 163.371094 209.71875 C 162.84375 208.929688 162.355469 208.117188 161.910156 207.277344 C 161.460938 206.4375 161.054688 205.582031 160.691406 204.703125 C 160.328125 203.824219 160.007812 202.929688 159.730469 202.023438 C 159.457031 201.113281 159.226562 200.191406 159.039062 199.257812 C 158.855469 198.328125 158.714844 197.386719 158.621094 196.441406 C 158.527344 195.496094 158.480469 194.546875 158.480469 193.597656 C 158.480469 192.648438 158.527344 191.699219 158.621094 190.753906 C 158.714844 189.808594 158.855469 188.871094 159.039062 187.9375 C 159.226562 187.003906 159.457031 186.085938 159.730469 185.175781 C 160.007812 184.265625 160.328125 183.371094 160.691406 182.492188 C 161.054688 181.617188 161.460938 180.757812 161.910156 179.917969 C 162.355469 179.082031 162.84375 178.265625 163.371094 177.476562 C 163.902344 176.6875 164.464844 175.925781 165.070312 175.191406 C 165.671875 174.453125 166.308594 173.75 166.980469 173.078125 C 167.652344 172.40625 168.355469 171.769531 169.089844 171.167969 C 169.824219 170.5625 170.589844 170 171.378906 169.472656 C 172.167969 168.941406 172.984375 168.453125 173.820312 168.007812 C 174.660156 167.558594 175.515625 167.152344 176.394531 166.789062 C 177.273438 166.425781 178.167969 166.105469 179.078125 165.828125 C 179.984375 165.554688 180.90625 165.324219 181.839844 165.136719 C 182.769531 164.953125 183.710938 164.8125 184.65625 164.71875 C 185.601562 164.628906 186.550781 164.582031 187.5 164.582031 C 188.449219 164.582031 189.398438 164.628906 190.34375 164.71875 C 191.289062 164.8125 192.230469 164.953125 193.160156 165.136719 C 194.09375 165.324219 195.015625 165.554688 195.921875 165.828125 C 196.832031 166.105469 197.726562 166.425781 198.605469 166.789062 C 199.484375 167.152344 200.339844 167.558594 201.179688 168.007812 C 202.015625 168.453125 202.832031 168.941406 203.621094 169.472656 C 204.410156 170 205.175781 170.5625 205.910156 171.167969 C 206.644531 171.769531 207.347656 172.40625 208.019531 173.078125 C 208.691406 173.75 209.328125 174.453125 209.929688 175.191406 C 210.535156 175.925781 211.097656 176.6875 211.628906 177.476562 C 212.15625 178.265625 212.644531 179.082031 213.089844 179.917969 C 213.539062 180.757812 213.945312 181.617188 214.308594 182.492188 C 214.671875 183.371094 214.992188 184.265625 215.269531 185.175781 C 215.542969 186.085938 215.773438 187.003906 215.960938 187.9375 C 216.144531 188.871094 216.285156 189.808594 216.378906 190.753906 C 216.472656 191.699219 216.519531 192.648438 216.519531 193.597656 C 216.515625 194.546875 216.46875 195.496094 216.375 196.441406 C 216.28125 197.386719 216.140625 198.324219 215.953125 199.257812 C 215.769531 200.1875 215.539062 201.109375 215.261719 202.019531 C 214.984375 202.925781 214.664062 203.820312 214.300781 204.699219 C 213.9375 205.574219 213.53125 206.433594 213.082031 207.269531 C 212.632812 208.109375 212.144531 208.921875 211.617188 209.710938 C 211.089844 210.5 210.523438 211.261719 209.921875 211.996094 C 209.316406 212.730469 208.679688 213.433594 208.007812 214.105469 C 207.335938 214.777344 206.632812 215.417969 205.898438 216.019531 C 205.164062 216.621094 204.402344 217.1875 203.613281 217.714844 C 202.824219 218.242188 202.011719 218.730469 201.171875 219.179688 C 200.335938 219.628906 199.476562 220.035156 198.597656 220.398438 C 197.722656 220.761719 196.828125 221.082031 195.917969 221.359375 C 195.011719 221.636719 194.089844 221.867188 193.160156 222.054688 C 192.226562 222.238281 191.289062 222.378906 190.34375 222.472656 C 189.398438 222.566406 188.449219 222.613281 187.5 222.617188 Z M 187.5 222.617188 " fill-opacity="1" fill-rule="nonzero"/><path fill="#004aad" d="M 187.5 175.742188 C 186.914062 175.742188 186.332031 175.769531 185.75 175.828125 C 185.167969 175.882812 184.589844 175.96875 184.015625 176.085938 C 183.441406 176.199219 182.875 176.339844 182.316406 176.511719 C 181.757812 176.679688 181.207031 176.875 180.667969 177.101562 C 180.125 177.324219 179.597656 177.574219 179.082031 177.851562 C 178.566406 178.125 178.066406 178.425781 177.578125 178.75 C 177.09375 179.074219 176.625 179.421875 176.171875 179.792969 C 175.71875 180.164062 175.285156 180.558594 174.875 180.972656 C 174.460938 181.386719 174.066406 181.816406 173.695312 182.269531 C 173.324219 182.722656 172.976562 183.191406 172.652344 183.675781 C 172.328125 184.164062 172.027344 184.664062 171.75 185.179688 C 171.476562 185.695312 171.226562 186.222656 171.003906 186.765625 C 170.777344 187.304688 170.582031 187.855469 170.410156 188.414062 C 170.242188 188.972656 170.101562 189.539062 169.984375 190.113281 C 169.871094 190.6875 169.785156 191.265625 169.730469 191.847656 C 169.671875 192.429688 169.644531 193.011719 169.644531 193.597656 C 169.644531 194.183594 169.671875 194.765625 169.730469 195.347656 C 169.785156 195.929688 169.871094 196.507812 169.984375 197.082031 C 170.101562 197.65625 170.242188 198.222656 170.410156 198.78125 C 170.582031 199.339844 170.777344 199.890625 171.003906 200.433594 C 171.226562 200.972656 171.476562 201.5 171.75 202.015625 C 172.027344 202.53125 172.328125 203.03125 172.652344 203.519531 C 172.976562 204.003906 173.324219 204.472656 173.695312 204.925781 C 174.066406 205.378906 174.460938 205.8125 174.875 206.226562 C 175.285156 206.636719 175.71875 207.03125 176.171875 207.402344 C 176.625 207.773438 177.09375 208.121094 177.578125 208.445312 C 178.066406 208.769531 178.566406 209.070312 179.082031 209.347656 C 179.597656 209.621094 180.125 209.871094 180.667969 210.097656 C 181.207031 210.320312 181.757812 210.515625 182.316406 210.6875 C 182.875 210.855469 183.441406 211 184.015625 211.113281 C 184.589844 211.226562 185.167969 211.3125 185.75 211.371094 C 186.332031 211.425781 186.914062 211.457031 187.5 211.457031 C 188.085938 211.457031 188.667969 211.425781 189.25 211.371094 C 189.832031 211.3125 190.410156 211.226562 190.984375 211.113281 C 191.558594 211 192.125 210.855469 192.683594 210.6875 C 193.242188 210.515625 193.792969 210.320312 194.332031 210.097656 C 194.875 209.871094 195.402344 209.621094 195.917969 209.347656 C 196.433594 209.070312 196.933594 208.769531 197.421875 208.445312 C 197.90625 208.121094 198.375 207.773438 198.828125 207.402344 C 199.28125 207.03125 199.714844 206.636719 200.125 206.226562 C 200.539062 205.8125 200.933594 205.378906 201.304688 204.925781 C 201.675781 204.472656 202.023438 204.003906 202.347656 203.519531 C 202.671875 203.03125 202.972656 202.53125 203.25 202.015625 C 203.523438 201.5 203.773438 200.972656 203.996094 200.433594 C 204.222656 199.890625 204.417969 199.339844 204.589844 198.78125 C 204.757812 198.222656 204.898438 197.65625 205.015625 197.082031 C 205.128906 196.507812 205.214844 195.929688 205.269531 195.347656 C 205.328125 194.765625 205.355469 194.183594 205.355469 193.597656 C 205.355469 193.011719 205.328125 192.429688 205.269531 191.847656 C 205.210938 191.265625 205.125 190.6875 205.011719 190.117188 C 204.894531 189.542969 204.753906 188.976562 204.582031 188.417969 C 204.414062 187.859375 204.214844 187.308594 203.992188 186.769531 C 203.769531 186.226562 203.519531 185.699219 203.242188 185.183594 C 202.964844 184.667969 202.664062 184.167969 202.339844 183.683594 C 202.015625 183.195312 201.667969 182.726562 201.296875 182.277344 C 200.925781 181.824219 200.535156 181.390625 200.121094 180.976562 C 199.707031 180.5625 199.273438 180.171875 198.824219 179.800781 C 198.371094 179.429688 197.902344 179.082031 197.414062 178.757812 C 196.929688 178.433594 196.429688 178.132812 195.914062 177.855469 C 195.398438 177.582031 194.871094 177.332031 194.332031 177.105469 C 193.789062 176.882812 193.242188 176.683594 192.679688 176.515625 C 192.121094 176.34375 191.554688 176.203125 190.980469 176.085938 C 190.410156 175.972656 189.832031 175.886719 189.25 175.828125 C 188.667969 175.769531 188.085938 175.742188 187.5 175.742188 Z M 187.5 202.527344 C 186.914062 202.527344 186.332031 202.46875 185.757812 202.355469 C 185.183594 202.242188 184.625 202.070312 184.082031 201.847656 C 183.542969 201.621094 183.027344 201.347656 182.539062 201.023438 C 182.050781 200.695312 181.601562 200.328125 181.1875 199.910156 C 180.773438 199.496094 180.402344 199.046875 180.074219 198.558594 C 179.75 198.070312 179.476562 197.554688 179.25 197.015625 C 179.027344 196.472656 178.855469 195.914062 178.742188 195.339844 C 178.628906 194.765625 178.570312 194.183594 178.570312 193.597656 C 178.570312 193.011719 178.628906 192.429688 178.742188 191.855469 C 178.855469 191.28125 179.027344 190.722656 179.25 190.179688 C 179.476562 189.640625 179.75 189.125 180.074219 188.636719 C 180.402344 188.148438 180.773438 187.699219 181.1875 187.285156 C 181.601562 186.871094 182.050781 186.5 182.539062 186.175781 C 183.027344 185.847656 183.542969 185.574219 184.082031 185.347656 C 184.625 185.125 185.183594 184.957031 185.757812 184.839844 C 186.332031 184.726562 186.914062 184.667969 187.5 184.667969 C 188.085938 184.667969 188.667969 184.726562 189.242188 184.839844 C 189.816406 184.957031 190.375 185.125 190.917969 185.347656 C 191.457031 185.574219 191.972656 185.847656 192.460938 186.175781 C 192.949219 186.5 193.398438 186.871094 193.8125 187.285156 C 194.226562 187.699219 194.597656 188.148438 194.921875 188.636719 C 195.25 189.125 195.523438 189.640625 195.75 190.179688 C 195.972656 190.722656 196.144531 191.28125 196.257812 191.855469 C 196.371094 192.429688 196.429688 193.011719 196.429688 193.597656 C 196.429688 194.183594 196.371094 194.765625 196.253906 195.339844 C 196.140625 195.914062 195.972656 196.472656 195.746094 197.011719 C 195.523438 197.554688 195.246094 198.070312 194.921875 198.554688 C 194.59375 199.042969 194.226562 199.496094 193.8125 199.910156 C 193.394531 200.324219 192.945312 200.695312 192.457031 201.019531 C 191.972656 201.34375 191.457031 201.621094 190.914062 201.84375 C 190.375 202.070312 189.816406 202.238281 189.242188 202.355469 C 188.667969 202.46875 188.085938 202.527344 187.5 202.527344 Z M 187.5 202.527344 " fill-opacity="1" fill-rule="nonzero"/><path fill="#2d4356" d="M 8.929688 331.992188 C 8.929688 332.285156 8.898438 332.574219 8.84375 332.863281 C 8.785156 333.148438 8.699219 333.429688 8.589844 333.699219 C 8.476562 333.96875 8.339844 334.226562 8.175781 334.472656 C 8.011719 334.714844 7.828125 334.941406 7.621094 335.148438 C 7.414062 335.355469 7.1875 335.539062 6.945312 335.703125 C 6.699219 335.867188 6.445312 336.003906 6.171875 336.117188 C 5.902344 336.226562 5.621094 336.3125 5.335938 336.371094 C 5.046875 336.425781 4.757812 336.457031 4.464844 336.457031 C 4.171875 336.457031 3.878906 336.425781 3.59375 336.371094 C 3.304688 336.3125 3.027344 336.226562 2.757812 336.117188 C 2.484375 336.003906 2.226562 335.867188 1.984375 335.703125 C 1.742188 335.539062 1.515625 335.355469 1.308594 335.148438 C 1.101562 334.941406 0.914062 334.714844 0.753906 334.472656 C 0.589844 334.226562 0.453125 333.96875 0.339844 333.699219 C 0.226562 333.429688 0.144531 333.148438 0.0859375 332.863281 C 0.0273438 332.574219 0 332.285156 0 331.992188 C 0 331.699219 0.0273438 331.40625 0.0859375 331.121094 C 0.144531 330.832031 0.226562 330.554688 0.339844 330.28125 C 0.453125 330.011719 0.589844 329.753906 0.753906 329.511719 C 0.914062 329.265625 1.101562 329.042969 1.308594 328.835938 C 1.515625 328.628906 1.742188 328.441406 1.984375 328.277344 C 2.226562 328.117188 2.484375 327.980469 2.757812 327.867188 C 3.027344 327.753906 3.304688 327.667969 3.59375 327.613281 C 3.878906 327.554688 4.171875 327.527344 4.464844 327.527344 C 4.757812 327.527344 5.046875 327.554688 5.335938 327.613281 C 5.621094 327.667969 5.902344 327.753906 6.171875 327.867188 C 6.445312 327.980469 6.699219 328.117188 6.945312 328.277344 C 7.1875 328.441406 7.414062 328.628906 7.621094 328.835938 C 7.828125 329.042969 8.011719 329.265625 8.175781 329.511719 C 8.339844 329.753906 8.476562 330.011719 8.589844 330.28125 C 8.699219 330.554688 8.785156 330.832031 8.84375 331.121094 C 8.898438 331.40625 8.929688 331.699219 8.929688 331.992188 Z M 8.929688 331.992188 " fill-opacity="1" fill-rule="nonzero"/><path fill="#2d4356" d="M 24.554688 327.527344 L 17.855469 327.527344 C 17.5625 327.527344 17.273438 327.554688 16.984375 327.613281 C 16.699219 327.667969 16.417969 327.753906 16.148438 327.867188 C 15.878906 327.980469 15.621094 328.117188 15.375 328.277344 C 15.132812 328.441406 14.90625 328.628906 14.699219 328.835938 C 14.492188 329.042969 14.308594 329.265625 14.144531 329.511719 C 13.980469 329.753906 13.84375 330.011719 13.734375 330.28125 C 13.621094 330.554688 13.535156 330.832031 13.480469 331.121094 C 13.421875 331.40625 13.394531 331.699219 13.394531 331.992188 C 13.394531 332.285156 13.421875 332.574219 13.480469 332.863281 C 13.535156 333.148438 13.621094 333.429688 13.734375 333.699219 C 13.84375 333.96875 13.980469 334.226562 14.144531 334.472656 C 14.308594 334.714844 14.492188 334.941406 14.699219 335.148438 C 14.90625 335.355469 15.132812 335.539062 15.375 335.703125 C 15.621094 335.867188 15.878906 336.003906 16.148438 336.117188 C 16.417969 336.226562 16.699219 336.3125 16.984375 336.371094 C 17.273438 336.425781 17.5625 336.457031 17.855469 336.457031 L 24.554688 336.457031 C 24.847656 336.457031 25.136719 336.425781 25.425781 336.371094 C 25.710938 336.3125 25.992188 336.226562 26.261719 336.117188 C 26.53125 336.003906 26.789062 335.867188 27.035156 335.703125 C 27.277344 335.539062 27.503906 335.355469 27.710938 335.148438 C 27.917969 334.941406 28.101562 334.714844 28.265625 334.472656 C 28.429688 334.226562 28.566406 333.96875 28.679688 333.699219 C 28.789062 333.429688 28.875 333.148438 28.933594 332.863281 C 28.988281 332.574219 29.019531 332.285156 29.019531 331.992188 C 29.019531 331.699219 28.988281 331.40625 28.933594 331.121094 C 28.875 330.832031 28.789062 330.554688 28.679688 330.28125 C 28.566406 330.011719 28.429688 329.753906 28.265625 329.511719 C 28.101562 329.265625 27.917969 329.042969 27.710938 328.835938 C 27.503906 328.628906 27.277344 328.441406 27.035156 328.277344 C 26.789062 328.117188 26.53125 327.980469 26.261719 327.867188 C 25.992188 327.753906 25.710938 327.667969 25.425781 327.613281 C 25.136719 327.554688 24.847656 327.527344 24.554688 327.527344 Z M 357.144531 327.527344 L 350.445312 327.527344 C 350.152344 327.527344 349.863281 327.554688 349.574219 327.613281 C 349.289062 327.667969 349.007812 327.753906 348.738281 327.867188 C 348.46875 327.980469 348.210938 328.117188 347.964844 328.277344 C 347.722656 328.441406 347.496094 328.628906 347.289062 328.835938 C 347.082031 329.042969 346.898438 329.265625 346.734375 329.511719 C 346.570312 329.753906 346.433594 330.011719 346.320312 330.28125 C 346.210938 330.554688 346.125 330.832031 346.066406 331.121094 C 346.011719 331.40625 345.980469 331.699219 345.980469 331.992188 C 345.980469 332.285156 346.011719 332.574219 346.066406 332.863281 C 346.125 333.148438 346.210938 333.429688 346.320312 333.699219 C 346.433594 333.96875 346.570312 334.226562 346.734375 334.472656 C 346.898438 334.714844 347.082031 334.941406 347.289062 335.148438 C 347.496094 335.355469 347.722656 335.539062 347.964844 335.703125 C 348.210938 335.867188 348.46875 336.003906 348.738281 336.117188 C 349.007812 336.226562 349.289062 336.3125 349.574219 336.371094 C 349.863281 336.425781 350.152344 336.457031 350.445312 336.457031 L 357.144531 336.457031 C 357.4375 336.457031 357.726562 336.425781 358.015625 336.371094 C 358.300781 336.3125 358.582031 336.226562 358.851562 336.117188 C 359.121094 336.003906 359.378906 335.867188 359.621094 335.703125 C 359.867188 335.539062 360.09375 335.355469 360.300781 335.148438 C 360.507812 334.941406 360.691406 334.714844 360.855469 334.472656 C 361.015625 334.226562 361.15625 333.96875 361.265625 333.699219 C 361.378906 333.429688 361.464844 333.148438 361.519531 332.863281 C 361.578125 332.574219 361.605469 332.285156 361.605469 331.992188 C 361.605469 331.699219 361.578125 331.40625 361.519531 331.121094 C 361.464844 330.832031 361.378906 330.554688 361.265625 330.28125 C 361.15625 330.011719 361.015625 329.753906 360.855469 329.511719 C 360.691406 329.265625 360.507812 329.042969 360.300781 328.835938 C 360.09375 328.628906 359.867188 328.441406 359.621094 328.277344 C 359.378906 328.117188 359.121094 327.980469 358.851562 327.867188 C 358.582031 327.753906 358.300781 327.667969 358.015625 327.613281 C 357.726562 327.554688 357.4375 327.527344 357.144531 327.527344 Z M 357.144531 327.527344 " fill-opacity="1" fill-rule="nonzero"/><path fill="#2d4356" d="M 375 331.992188 C 375 332.285156 374.972656 332.574219 374.914062 332.863281 C 374.855469 333.148438 374.773438 333.429688 374.660156 333.699219 C 374.546875 333.96875 374.410156 334.226562 374.246094 334.472656 C 374.085938 334.714844 373.898438 334.941406 373.691406 335.148438 C 373.484375 335.355469 373.257812 335.539062 373.015625 335.703125 C 372.773438 335.867188 372.515625 336.003906 372.242188 336.117188 C 371.972656 336.226562 371.695312 336.3125 371.40625 336.371094 C 371.117188 336.425781 370.828125 336.457031 370.535156 336.457031 C 370.242188 336.457031 369.953125 336.425781 369.664062 336.371094 C 369.378906 336.3125 369.097656 336.226562 368.828125 336.117188 C 368.554688 336.003906 368.300781 335.867188 368.054688 335.703125 C 367.8125 335.539062 367.585938 335.355469 367.378906 335.148438 C 367.171875 334.941406 366.988281 334.714844 366.824219 334.472656 C 366.660156 334.226562 366.523438 333.96875 366.410156 333.699219 C 366.300781 333.429688 366.214844 333.148438 366.15625 332.863281 C 366.101562 332.574219 366.070312 332.285156 366.070312 331.992188 C 366.070312 331.699219 366.101562 331.40625 366.15625 331.121094 C 366.214844 330.832031 366.300781 330.554688 366.410156 330.28125 C 366.523438 330.011719 366.660156 329.753906 366.824219 329.511719 C 366.988281 329.265625 367.171875 329.042969 367.378906 328.835938 C 367.585938 328.628906 367.8125 328.441406 368.054688 328.277344 C 368.300781 328.117188 368.554688 327.980469 368.828125 327.867188 C 369.097656 327.753906 369.378906 327.667969 369.664062 327.613281 C 369.953125 327.554688 370.242188 327.527344 370.535156 327.527344 C 370.828125 327.527344 371.117188 327.554688 371.40625 327.613281 C 371.695312 327.667969 371.972656 327.753906 372.242188 327.867188 C 372.515625 327.980469 372.773438 328.117188 373.015625 328.277344 C 373.257812 328.441406 373.484375 328.628906 373.691406 328.835938 C 373.898438 329.042969 374.085938 329.265625 374.246094 329.511719 C 374.410156 329.753906 374.546875 330.011719 374.660156 330.28125 C 374.773438 330.554688 374.855469 330.832031 374.914062 331.121094 C 374.972656 331.40625 375 331.699219 375 331.992188 Z M 375 331.992188 " fill-opacity="1" fill-rule="nonzero"/><path fill="#004aad" d="M 263.738281 345.382812 L 245.191406 345.382812 C 244.628906 345.425781 244.09375 345.570312 243.585938 345.816406 C 243.078125 346.0625 242.636719 346.394531 242.25 346.808594 C 241.867188 347.21875 241.574219 347.691406 241.367188 348.214844 C 241.164062 348.738281 241.0625 349.285156 241.0625 349.847656 C 241.0625 350.410156 241.164062 350.957031 241.367188 351.480469 C 241.574219 352.007812 241.867188 352.476562 242.25 352.890625 C 242.636719 353.304688 243.078125 353.632812 243.585938 353.878906 C 244.09375 354.125 244.628906 354.269531 245.191406 354.3125 L 263.738281 354.3125 C 264.296875 354.269531 264.832031 354.125 265.339844 353.878906 C 265.847656 353.632812 266.292969 353.304688 266.675781 352.890625 C 267.058594 352.476562 267.355469 352.007812 267.558594 351.480469 C 267.765625 350.957031 267.867188 350.410156 267.867188 349.847656 C 267.867188 349.285156 267.765625 348.738281 267.558594 348.214844 C 267.355469 347.691406 267.058594 347.21875 266.675781 346.808594 C 266.292969 346.394531 265.847656 346.0625 265.339844 345.816406 C 264.832031 345.570312 264.296875 345.425781 263.738281 345.382812 Z M 129.808594 345.382812 L 111.261719 345.382812 C 110.703125 345.425781 110.167969 345.570312 109.660156 345.816406 C 109.152344 346.0625 108.707031 346.394531 108.324219 346.808594 C 107.941406 347.21875 107.644531 347.691406 107.441406 348.214844 C 107.234375 348.738281 107.132812 349.285156 107.132812 349.847656 C 107.132812 350.410156 107.234375 350.957031 107.441406 351.480469 C 107.644531 352.007812 107.941406 352.476562 108.324219 352.890625 C 108.707031 353.304688 109.152344 353.632812 109.660156 353.878906 C 110.167969 354.125 110.703125 354.269531 111.261719 354.3125 L 129.808594 354.3125 C 130.371094 354.269531 130.90625 354.125 131.414062 353.878906 C 131.921875 353.632812 132.363281 353.304688 132.75 352.890625 C 133.132812 352.476562 133.425781 352.007812 133.632812 351.480469 C 133.835938 350.957031 133.9375 350.410156 133.9375 349.847656 C 133.9375 349.285156 133.835938 348.738281 133.632812 348.214844 C 133.425781 347.691406 133.132812 347.21875 132.75 346.808594 C 132.363281 346.394531 131.921875 346.0625 131.414062 345.816406 C 130.90625 345.570312 130.371094 345.425781 129.808594 345.382812 Z M 232.144531 345.382812 L 142.855469 345.382812 C 142.5625 345.382812 142.273438 345.414062 141.984375 345.46875 C 141.699219 345.527344 141.417969 345.613281 141.148438 345.722656 C 140.878906 345.835938 140.621094 345.972656 140.375 346.136719 C 140.132812 346.300781 139.90625 346.484375 139.699219 346.691406 C 139.492188 346.898438 139.308594 347.125 139.144531 347.367188 C 138.980469 347.613281 138.84375 347.867188 138.734375 348.140625 C 138.621094 348.410156 138.535156 348.691406 138.480469 348.976562 C 138.421875 349.265625 138.394531 349.554688 138.394531 349.847656 C 138.394531 350.140625 138.421875 350.429688 138.480469 350.71875 C 138.535156 351.007812 138.621094 351.285156 138.734375 351.554688 C 138.84375 351.828125 138.980469 352.085938 139.144531 352.328125 C 139.308594 352.570312 139.492188 352.796875 139.699219 353.003906 C 139.90625 353.210938 140.132812 353.398438 140.375 353.558594 C 140.621094 353.722656 140.878906 353.859375 141.148438 353.972656 C 141.417969 354.085938 141.699219 354.167969 141.984375 354.226562 C 142.273438 354.285156 142.5625 354.3125 142.855469 354.3125 L 178.4375 354.3125 L 178.4375 358.777344 L 160.714844 358.777344 C 160.421875 358.777344 160.128906 358.804688 159.84375 358.863281 C 159.554688 358.917969 159.277344 359.003906 159.003906 359.117188 C 158.734375 359.230469 158.476562 359.367188 158.234375 359.527344 C 157.992188 359.691406 157.765625 359.878906 157.558594 360.085938 C 157.351562 360.292969 157.164062 360.515625 157.003906 360.761719 C 156.839844 361.003906 156.703125 361.261719 156.589844 361.53125 C 156.476562 361.804688 156.394531 362.082031 156.335938 362.371094 C 156.277344 362.65625 156.25 362.949219 156.25 363.242188 C 156.25 363.535156 156.277344 363.824219 156.335938 364.113281 C 156.394531 364.398438 156.476562 364.679688 156.589844 364.949219 C 156.703125 365.21875 156.839844 365.476562 157.003906 365.722656 C 157.164062 365.964844 157.351562 366.191406 157.558594 366.398438 C 157.765625 366.605469 157.992188 366.789062 158.234375 366.953125 C 158.476562 367.117188 158.734375 367.253906 159.003906 367.367188 C 159.277344 367.476562 159.554688 367.5625 159.84375 367.621094 C 160.128906 367.675781 160.421875 367.707031 160.714844 367.707031 L 216.519531 367.707031 C 216.8125 367.707031 217.101562 367.675781 217.390625 367.621094 C 217.675781 367.5625 217.957031 367.476562 218.226562 367.367188 C 218.496094 367.253906 218.753906 367.117188 219 366.953125 C 219.242188 366.789062 219.46875 366.605469 219.675781 366.398438 C 219.882812 366.191406 220.066406 365.964844 220.230469 365.722656 C 220.394531 365.476562 220.53125 365.21875 220.640625 364.949219 C 220.753906 364.679688 220.839844 364.398438 220.894531 364.113281 C 220.953125 363.824219 220.980469 363.535156 220.980469 363.242188 C 220.980469 362.949219 220.953125 362.65625 220.894531 362.371094 C 220.839844 362.082031 220.753906 361.804688 220.640625 361.53125 C 220.53125 361.261719 220.394531 361.003906 220.230469 360.761719 C 220.066406 360.515625 219.882812 360.292969 219.675781 360.085938 C 219.46875 359.878906 219.242188 359.691406 219 359.527344 C 218.753906 359.367188 218.496094 359.230469 218.226562 359.117188 C 217.957031 359.003906 217.675781 358.917969 217.390625 358.863281 C 217.101562 358.804688 216.8125 358.777344 216.519531 358.777344 L 196.5625 358.777344 L 196.5625 354.3125 L 232.144531 354.3125 C 232.4375 354.3125 232.726562 354.285156 233.015625 354.226562 C 233.300781 354.167969 233.582031 354.085938 233.851562 353.972656 C 234.121094 353.859375 234.378906 353.722656 234.625 353.558594 C 234.867188 353.398438 235.09375 353.210938 235.300781 353.003906 C 235.507812 352.796875 235.691406 352.570312 235.855469 352.328125 C 236.015625 352.085938 236.15625 351.828125 236.265625 351.554688 C 236.378906 351.285156 236.464844 351.007812 236.519531 350.71875 C 236.578125 350.429688 236.605469 350.140625 236.605469 349.847656 C 236.605469 349.554688 236.578125 349.265625 236.519531 348.976562 C 236.464844 348.691406 236.378906 348.410156 236.265625 348.140625 C 236.15625 347.867188 236.015625 347.613281 235.855469 347.367188 C 235.691406 347.125 235.507812 346.898438 235.300781 346.691406 C 235.09375 346.484375 234.867188 346.300781 234.621094 346.136719 C 234.378906 345.972656 234.121094 345.835938 233.851562 345.722656 C 233.582031 345.613281 233.300781 345.527344 233.015625 345.46875 C 232.726562 345.414062 232.4375 345.382812 232.144531 345.382812 Z M 232.144531 345.382812 " fill-opacity="1" fill-rule="nonzero"/><path fill="#2d4356" d="M 336.429688 327.527344 L 208.835938 327.527344 C 216.832031 320.550781 223.980469 309.75 229.902344 295.976562 C 240.652344 300.609375 251.875 303.128906 263.574219 303.539062 C 265.960938 303.539062 268.335938 303.355469 270.695312 302.992188 C 271.046875 303.496094 271.429688 303.976562 271.839844 304.4375 C 272.25 304.894531 272.6875 305.328125 273.148438 305.734375 C 273.613281 306.140625 274.09375 306.515625 274.601562 306.867188 C 275.109375 307.214844 275.632812 307.535156 276.179688 307.820312 C 276.722656 308.109375 277.28125 308.363281 277.855469 308.582031 C 278.429688 308.804688 279.015625 308.992188 279.613281 309.144531 C 280.207031 309.292969 280.8125 309.410156 281.421875 309.492188 C 282.03125 309.570312 282.644531 309.617188 283.257812 309.625 C 283.875 309.632812 284.488281 309.601562 285.101562 309.539062 C 285.710938 309.472656 286.316406 309.371094 286.917969 309.238281 C 287.515625 309.101562 288.105469 308.929688 288.6875 308.722656 C 289.265625 308.515625 289.832031 308.277344 290.382812 308.003906 C 290.933594 307.730469 291.46875 307.425781 291.984375 307.089844 C 292.5 306.753906 292.992188 306.390625 293.464844 305.996094 C 293.9375 305.601562 294.382812 305.179688 294.808594 304.730469 C 295.230469 304.285156 295.625 303.8125 295.988281 303.320312 C 296.355469 302.824219 296.691406 302.3125 297 301.777344 C 297.304688 301.242188 297.578125 300.691406 297.820312 300.125 C 298.058594 299.558594 298.265625 298.980469 298.4375 298.390625 C 298.609375 297.800781 298.746094 297.203125 298.847656 296.59375 C 298.949219 295.988281 299.015625 295.378906 299.042969 294.761719 C 299.074219 294.148438 299.066406 293.535156 299.023438 292.921875 C 298.980469 292.304688 298.902344 291.695312 298.785156 291.09375 C 298.667969 290.488281 298.519531 289.894531 298.332031 289.304688 C 298.148438 288.71875 297.925781 288.148438 297.671875 287.585938 C 297.417969 287.027344 297.132812 286.480469 296.816406 285.957031 C 296.496094 285.429688 296.148438 284.921875 295.769531 284.4375 C 295.394531 283.953125 294.988281 283.488281 294.554688 283.050781 C 294.121094 282.613281 293.664062 282.203125 293.183594 281.820312 C 292.703125 281.4375 292.203125 281.082031 291.679688 280.757812 C 291.15625 280.433594 290.617188 280.144531 290.058594 279.882812 C 289.5 279.621094 288.929688 279.394531 288.34375 279.203125 C 287.761719 279.011719 287.167969 278.855469 286.5625 278.730469 C 285.960938 278.609375 285.351562 278.523438 284.738281 278.472656 C 284.125 278.421875 283.511719 278.40625 282.898438 278.429688 C 282.28125 278.453125 281.671875 278.511719 281.0625 278.605469 C 280.453125 278.699219 279.855469 278.828125 279.261719 278.996094 C 278.667969 279.160156 278.089844 279.359375 277.519531 279.59375 C 276.949219 279.828125 276.398438 280.09375 275.859375 280.394531 C 275.324219 280.695312 274.804688 281.023438 274.304688 281.386719 C 273.808594 281.746094 273.332031 282.136719 272.878906 282.554688 C 272.429688 282.96875 272.003906 283.414062 271.601562 283.878906 C 271.203125 284.347656 270.832031 284.835938 270.488281 285.347656 C 270.148438 285.859375 269.835938 286.390625 269.558594 286.9375 C 269.277344 287.488281 269.03125 288.050781 268.820312 288.628906 C 268.605469 289.203125 268.429688 289.792969 268.285156 290.390625 C 268.140625 290.988281 268.035156 291.59375 267.964844 292.203125 C 267.890625 292.816406 267.855469 293.429688 267.855469 294.042969 C 267.855469 294.199219 267.875 294.351562 267.878906 294.507812 C 258.519531 295.554688 246.570312 293.101562 233.183594 287.675781 C 237.648438 275.167969 240.980469 262.371094 243.175781 249.273438 C 294.855469 240.289062 330.355469 219.019531 330.355469 193.597656 C 330.355469 176.902344 315.027344 162.003906 289.875 151.191406 C 300.011719 125.761719 300.320312 104.386719 288.511719 92.582031 C 270.539062 74.605469 230.394531 84.667969 187.496094 114.859375 C 176.691406 107.160156 165.296875 100.464844 153.304688 94.78125 C 155.28125 90.082031 157.566406 85.535156 160.160156 81.148438 C 160.746094 81.347656 161.34375 81.515625 161.953125 81.644531 C 162.5625 81.773438 163.175781 81.867188 163.792969 81.925781 C 164.414062 81.980469 165.035156 82.003906 165.65625 81.984375 C 166.277344 81.96875 166.894531 81.914062 167.511719 81.824219 C 168.125 81.734375 168.734375 81.609375 169.332031 81.445312 C 169.933594 81.28125 170.523438 81.085938 171.097656 80.851562 C 171.675781 80.621094 172.234375 80.355469 172.78125 80.054688 C 173.324219 79.753906 173.851562 79.425781 174.355469 79.0625 C 174.863281 78.699219 175.34375 78.308594 175.804688 77.890625 C 176.261719 77.472656 176.695312 77.027344 177.101562 76.554688 C 177.507812 76.085938 177.886719 75.59375 178.234375 75.078125 C 178.582031 74.5625 178.894531 74.027344 179.179688 73.472656 C 179.464844 72.921875 179.714844 72.351562 179.929688 71.769531 C 180.148438 71.1875 180.328125 70.59375 180.472656 69.988281 C 180.621094 69.382812 180.730469 68.773438 180.800781 68.15625 C 180.875 67.539062 180.910156 66.917969 180.910156 66.296875 C 180.910156 65.675781 180.871094 65.054688 180.796875 64.4375 C 180.722656 63.820312 180.613281 63.210938 180.464844 62.605469 C 180.320312 62 180.136719 61.40625 179.917969 60.824219 C 179.703125 60.242188 179.449219 59.675781 179.164062 59.121094 C 178.878906 58.570312 178.5625 58.035156 178.214844 57.523438 C 177.867188 57.007812 177.488281 56.515625 177.082031 56.042969 C 176.675781 55.574219 176.238281 55.128906 175.78125 54.710938 C 175.320312 54.292969 174.835938 53.90625 174.332031 53.542969 C 173.824219 53.183594 173.296875 52.851562 172.753906 52.554688 C 172.207031 52.257812 171.644531 51.992188 171.066406 51.761719 C 170.492188 51.527344 169.902344 51.332031 169.300781 51.171875 C 168.703125 51.011719 168.09375 50.882812 167.476562 50.796875 C 166.863281 50.707031 166.246094 50.65625 165.621094 50.640625 C 165 50.625 164.378906 50.644531 163.761719 50.703125 C 163.140625 50.761719 162.527344 50.855469 161.921875 50.988281 C 161.3125 51.117188 160.714844 51.285156 160.128906 51.488281 C 159.539062 51.691406 158.964844 51.925781 158.40625 52.199219 C 157.847656 52.46875 157.304688 52.773438 156.78125 53.105469 C 156.257812 53.441406 155.753906 53.808594 155.273438 54.203125 C 154.792969 54.597656 154.339844 55.019531 153.910156 55.46875 C 153.480469 55.917969 153.078125 56.390625 152.703125 56.886719 C 152.328125 57.382812 151.988281 57.902344 151.675781 58.4375 C 151.363281 58.976562 151.082031 59.53125 150.835938 60.101562 C 150.589844 60.671875 150.378906 61.257812 150.203125 61.851562 C 150.023438 62.449219 149.882812 63.054688 149.777344 63.664062 C 149.675781 64.277344 149.605469 64.894531 149.574219 65.515625 C 149.542969 66.136719 149.546875 66.757812 149.589844 67.378906 C 149.632812 68 149.710938 68.613281 149.828125 69.226562 C 149.941406 69.835938 150.09375 70.4375 150.28125 71.03125 C 150.46875 71.625 150.691406 72.203125 150.945312 72.769531 C 151.203125 73.335938 151.492188 73.886719 151.8125 74.417969 C 152.132812 74.953125 152.484375 75.460938 152.867188 75.953125 C 149.914062 80.859375 147.320312 85.949219 145.085938 91.222656 C 119.660156 81.082031 98.285156 80.777344 86.484375 92.582031 C 65.101562 113.972656 83.421875 166.746094 128.101562 218.199219 C 128.625 225.636719 129.378906 232.847656 130.359375 239.832031 C 110.488281 236.128906 92.84375 230.542969 79.410156 223.425781 C 77.679688 222.503906 75.976562 221.527344 74.308594 220.496094 C 74.582031 219.9375 74.820312 219.367188 75.023438 218.78125 C 75.226562 218.195312 75.394531 217.597656 75.527344 216.992188 C 75.660156 216.386719 75.753906 215.773438 75.816406 215.15625 C 75.875 214.539062 75.898438 213.921875 75.886719 213.300781 C 75.871094 212.679688 75.820312 212.0625 75.734375 211.449219 C 75.648438 210.835938 75.527344 210.226562 75.367188 209.628906 C 75.207031 209.027344 75.015625 208.441406 74.785156 207.863281 C 74.558594 207.285156 74.296875 206.726562 74 206.179688 C 73.703125 205.632812 73.378906 205.109375 73.019531 204.601562 C 72.660156 204.09375 72.277344 203.609375 71.859375 203.152344 C 71.445312 202.691406 71.003906 202.253906 70.535156 201.847656 C 70.070312 201.4375 69.582031 201.058594 69.070312 200.707031 C 68.558594 200.359375 68.027344 200.039062 67.476562 199.753906 C 66.925781 199.464844 66.363281 199.210938 65.78125 198.992188 C 65.203125 198.769531 64.609375 198.585938 64.007812 198.4375 C 63.40625 198.285156 62.796875 198.171875 62.183594 198.09375 C 61.566406 198.015625 60.949219 197.976562 60.328125 197.972656 C 59.707031 197.964844 59.089844 198 58.472656 198.066406 C 57.859375 198.136719 57.246094 198.242188 56.644531 198.382812 C 56.039062 198.527344 55.445312 198.703125 54.863281 198.914062 C 54.28125 199.125 53.710938 199.371094 53.15625 199.652344 C 52.605469 199.933594 52.070312 200.242188 51.550781 200.585938 C 51.035156 200.929688 50.539062 201.300781 50.066406 201.703125 C 49.59375 202.105469 49.148438 202.535156 48.726562 202.988281 C 48.304688 203.445312 47.910156 203.921875 47.546875 204.425781 C 47.183594 204.925781 46.847656 205.449219 46.546875 205.988281 C 46.242188 206.53125 45.972656 207.085938 45.734375 207.660156 C 45.5 208.234375 45.296875 208.820312 45.128906 209.417969 C 44.960938 210.015625 44.832031 210.621094 44.734375 211.230469 C 44.640625 211.84375 44.582031 212.460938 44.558594 213.082031 C 44.539062 213.703125 44.550781 214.320312 44.605469 214.9375 C 44.65625 215.558594 44.742188 216.171875 44.867188 216.777344 C 44.992188 217.386719 45.152344 217.984375 45.347656 218.574219 C 45.542969 219.160156 45.769531 219.738281 46.035156 220.296875 C 46.296875 220.859375 46.59375 221.402344 46.921875 221.929688 C 47.25 222.457031 47.609375 222.960938 47.996094 223.445312 C 48.386719 223.929688 48.800781 224.386719 49.242188 224.824219 C 49.6875 225.257812 50.152344 225.664062 50.644531 226.042969 C 51.136719 226.421875 51.648438 226.769531 52.179688 227.089844 C 52.710938 227.40625 53.261719 227.695312 53.828125 227.945312 C 54.394531 228.199219 54.972656 228.417969 55.566406 228.601562 C 56.15625 228.785156 56.757812 228.933594 57.367188 229.046875 C 57.980469 229.160156 58.59375 229.238281 59.210938 229.277344 C 59.832031 229.316406 60.449219 229.320312 61.070312 229.285156 C 61.691406 229.253906 62.304688 229.183594 62.914062 229.078125 C 63.527344 228.96875 64.128906 228.828125 64.722656 228.648438 C 65.316406 228.46875 65.898438 228.257812 66.46875 228.011719 C 67.039062 227.761719 67.589844 227.484375 68.125 227.167969 C 70.347656 228.589844 72.699219 229.976562 75.230469 231.316406 C 90.359375 239.335938 109.839844 245.433594 131.820312 249.257812 C 134.019531 262.363281 137.351562 275.171875 141.816406 287.683594 C 129.464844 292.695312 118.34375 295.167969 109.339844 294.703125 C 109.351562 294.484375 109.375 294.269531 109.375 294.042969 C 109.378906 293.429688 109.34375 292.8125 109.273438 292.203125 C 109.203125 291.589844 109.097656 290.984375 108.953125 290.382812 C 108.8125 289.785156 108.636719 289.195312 108.425781 288.613281 C 108.214844 288.035156 107.96875 287.472656 107.691406 286.921875 C 107.414062 286.371094 107.105469 285.839844 106.765625 285.324219 C 106.425781 284.8125 106.054688 284.320312 105.65625 283.847656 C 105.257812 283.378906 104.832031 282.933594 104.382812 282.511719 C 103.929688 282.09375 103.457031 281.699219 102.960938 281.335938 C 102.460938 280.972656 101.945312 280.636719 101.410156 280.335938 C 100.871094 280.03125 100.320312 279.761719 99.75 279.523438 C 99.183594 279.285156 98.601562 279.082031 98.007812 278.910156 C 97.417969 278.742188 96.816406 278.609375 96.207031 278.507812 C 95.597656 278.410156 94.988281 278.347656 94.371094 278.320312 C 93.753906 278.292969 93.140625 278.304688 92.527344 278.347656 C 91.910156 278.394531 91.300781 278.476562 90.695312 278.59375 C 90.089844 278.710938 89.496094 278.863281 88.90625 279.054688 C 88.320312 279.242188 87.746094 279.460938 87.1875 279.71875 C 86.625 279.972656 86.082031 280.261719 85.554688 280.582031 C 85.027344 280.902344 84.519531 281.25 84.035156 281.632812 C 83.550781 282.011719 83.089844 282.417969 82.652344 282.851562 C 82.210938 283.285156 81.800781 283.742188 81.417969 284.226562 C 81.035156 284.707031 80.679688 285.210938 80.355469 285.734375 C 80.03125 286.257812 79.738281 286.800781 79.480469 287.359375 C 79.21875 287.917969 78.992188 288.488281 78.796875 289.074219 C 78.605469 289.660156 78.449219 290.253906 78.324219 290.859375 C 78.203125 291.464844 78.113281 292.074219 78.0625 292.6875 C 78.011719 293.300781 77.996094 293.917969 78.019531 294.53125 C 78.039062 295.148438 78.097656 295.761719 78.191406 296.371094 C 78.285156 296.980469 78.414062 297.582031 78.578125 298.175781 C 78.742188 298.769531 78.941406 299.351562 79.175781 299.921875 C 79.40625 300.492188 79.675781 301.046875 79.972656 301.585938 C 80.269531 302.125 80.601562 302.644531 80.960938 303.144531 C 81.320312 303.648438 81.707031 304.125 82.125 304.578125 C 82.539062 305.035156 82.980469 305.460938 83.449219 305.863281 C 83.914062 306.265625 84.40625 306.640625 84.914062 306.984375 C 85.425781 307.332031 85.957031 307.644531 86.503906 307.925781 C 87.050781 308.210938 87.613281 308.457031 88.191406 308.675781 C 88.769531 308.890625 89.355469 309.074219 89.953125 309.21875 C 90.554688 309.367188 91.160156 309.476562 91.769531 309.554688 C 92.382812 309.628906 92.996094 309.667969 93.613281 309.671875 C 94.230469 309.675781 94.84375 309.640625 95.457031 309.570312 C 96.070312 309.503906 96.675781 309.398438 97.273438 309.257812 C 97.875 309.117188 98.464844 308.941406 99.042969 308.730469 C 99.625 308.519531 100.1875 308.277344 100.738281 308 C 101.289062 307.722656 101.820312 307.414062 102.335938 307.074219 C 102.851562 306.734375 103.34375 306.367188 103.8125 305.96875 C 104.285156 305.570312 104.730469 305.144531 105.152344 304.695312 C 105.574219 304.246094 105.964844 303.769531 106.332031 303.273438 C 108.023438 303.449219 109.722656 303.539062 111.429688 303.539062 C 123.125 303.128906 134.347656 300.605469 145.097656 295.976562 C 151.019531 309.75 158.167969 320.550781 166.164062 327.527344 L 38.570312 327.527344 C 38.25 327.484375 37.933594 327.476562 37.613281 327.503906 C 37.296875 327.53125 36.980469 327.589844 36.675781 327.683594 C 36.371094 327.777344 36.078125 327.902344 35.796875 328.058594 C 35.515625 328.210938 35.257812 328.394531 35.015625 328.609375 C 34.773438 328.820312 34.558594 329.054688 34.367188 329.308594 C 34.179688 329.566406 34.015625 329.84375 33.882812 330.132812 C 33.753906 330.425781 33.652344 330.726562 33.585938 331.042969 C 33.515625 331.355469 33.484375 331.671875 33.484375 331.992188 C 33.484375 332.3125 33.515625 332.628906 33.585938 332.941406 C 33.652344 333.253906 33.753906 333.554688 33.882812 333.847656 C 34.015625 334.140625 34.179688 334.414062 34.367188 334.671875 C 34.558594 334.929688 34.773438 335.164062 35.015625 335.375 C 35.257812 335.585938 35.515625 335.769531 35.796875 335.925781 C 36.078125 336.082031 36.371094 336.207031 36.675781 336.296875 C 36.980469 336.390625 37.296875 336.453125 37.613281 336.476562 C 37.933594 336.503906 38.25 336.496094 38.570312 336.457031 L 336.429688 336.457031 C 336.746094 336.496094 337.066406 336.503906 337.382812 336.476562 C 337.703125 336.453125 338.015625 336.390625 338.320312 336.296875 C 338.628906 336.207031 338.921875 336.082031 339.203125 335.925781 C 339.480469 335.769531 339.742188 335.585938 339.980469 335.375 C 340.222656 335.164062 340.4375 334.929688 340.628906 334.671875 C 340.820312 334.414062 340.980469 334.140625 341.113281 333.847656 C 341.246094 333.554688 341.34375 333.253906 341.414062 332.941406 C 341.480469 332.628906 341.515625 332.3125 341.515625 331.992188 C 341.515625 331.671875 341.480469 331.355469 341.414062 331.042969 C 341.34375 330.726562 341.246094 330.425781 341.113281 330.132812 C 340.980469 329.84375 340.820312 329.566406 340.628906 329.308594 C 340.4375 329.054688 340.222656 328.820312 339.980469 328.609375 C 339.742188 328.394531 339.480469 328.210938 339.203125 328.058594 C 338.921875 327.902344 338.628906 327.777344 338.320312 327.683594 C 338.015625 327.589844 337.703125 327.53125 337.382812 327.503906 C 337.066406 327.476562 336.746094 327.484375 336.429688 327.527344 Z M 283.480469 287.347656 C 283.921875 287.347656 284.355469 287.390625 284.789062 287.476562 C 285.21875 287.5625 285.636719 287.691406 286.042969 287.859375 C 286.449219 288.027344 286.835938 288.230469 287.203125 288.476562 C 287.566406 288.722656 287.90625 289 288.21875 289.308594 C 288.527344 289.621094 288.804688 289.957031 289.050781 290.324219 C 289.292969 290.691406 289.5 291.074219 289.667969 291.480469 C 289.835938 291.886719 289.964844 292.308594 290.050781 292.738281 C 290.136719 293.167969 290.179688 293.605469 290.179688 294.042969 C 290.179688 294.484375 290.136719 294.917969 290.050781 295.351562 C 289.964844 295.78125 289.835938 296.199219 289.667969 296.605469 C 289.5 297.011719 289.292969 297.398438 289.050781 297.765625 C 288.804688 298.128906 288.527344 298.46875 288.21875 298.78125 C 287.90625 299.089844 287.566406 299.367188 287.203125 299.613281 C 286.835938 299.855469 286.449219 300.0625 286.042969 300.230469 C 285.636719 300.398438 285.21875 300.527344 284.789062 300.613281 C 284.355469 300.699219 283.921875 300.742188 283.480469 300.742188 C 283.042969 300.742188 282.605469 300.699219 282.175781 300.613281 C 281.746094 300.527344 281.324219 300.398438 280.917969 300.230469 C 280.511719 300.0625 280.128906 299.855469 279.761719 299.613281 C 279.394531 299.367188 279.058594 299.089844 278.746094 298.78125 C 278.4375 298.46875 278.160156 298.128906 277.914062 297.765625 C 277.671875 297.398438 277.464844 297.011719 277.296875 296.605469 C 277.128906 296.199219 277 295.78125 276.914062 295.351562 C 276.828125 294.917969 276.785156 294.484375 276.785156 294.042969 C 276.785156 293.605469 276.828125 293.167969 276.914062 292.738281 C 277 292.308594 277.128906 291.890625 277.296875 291.484375 C 277.464844 291.078125 277.671875 290.691406 277.917969 290.324219 C 278.160156 289.960938 278.4375 289.621094 278.75 289.3125 C 279.058594 289 279.398438 288.722656 279.761719 288.480469 C 280.128906 288.234375 280.515625 288.027344 280.921875 287.859375 C 281.328125 287.691406 281.746094 287.5625 282.175781 287.476562 C 282.605469 287.390625 283.042969 287.347656 283.480469 287.347656 Z M 165.179688 59.667969 C 165.617188 59.667969 166.054688 59.710938 166.484375 59.796875 C 166.917969 59.882812 167.335938 60.011719 167.742188 60.179688 C 168.148438 60.347656 168.535156 60.554688 168.898438 60.796875 C 169.265625 61.042969 169.601562 61.320312 169.914062 61.632812 C 170.222656 61.941406 170.503906 62.28125 170.746094 62.644531 C 170.992188 63.011719 171.195312 63.398438 171.363281 63.804688 C 171.535156 64.210938 171.660156 64.628906 171.746094 65.058594 C 171.832031 65.492188 171.875 65.925781 171.875 66.367188 C 171.875 66.804688 171.832031 67.242188 171.746094 67.671875 C 171.660156 68.105469 171.535156 68.523438 171.363281 68.929688 C 171.195312 69.335938 170.992188 69.722656 170.746094 70.085938 C 170.503906 70.453125 170.222656 70.789062 169.914062 71.101562 C 169.601562 71.410156 169.265625 71.691406 168.898438 71.933594 C 168.535156 72.179688 168.148438 72.382812 167.742188 72.554688 C 167.335938 72.722656 166.917969 72.847656 166.484375 72.933594 C 166.054688 73.019531 165.617188 73.0625 165.179688 73.0625 C 164.738281 73.0625 164.304688 73.019531 163.871094 72.933594 C 163.441406 72.847656 163.023438 72.722656 162.617188 72.554688 C 162.210938 72.382812 161.824219 72.179688 161.457031 71.933594 C 161.09375 71.691406 160.753906 71.410156 160.445312 71.101562 C 160.132812 70.789062 159.855469 70.453125 159.609375 70.085938 C 159.367188 69.722656 159.160156 69.335938 158.992188 68.929688 C 158.824219 68.523438 158.695312 68.105469 158.609375 67.671875 C 158.523438 67.242188 158.480469 66.804688 158.480469 66.367188 C 158.484375 65.925781 158.527344 65.492188 158.613281 65.058594 C 158.699219 64.628906 158.824219 64.210938 158.992188 63.804688 C 159.160156 63.398438 159.367188 63.011719 159.613281 62.648438 C 159.855469 62.28125 160.132812 61.945312 160.445312 61.632812 C 160.757812 61.320312 161.09375 61.042969 161.460938 60.800781 C 161.824219 60.554688 162.210938 60.347656 162.617188 60.179688 C 163.023438 60.011719 163.441406 59.886719 163.871094 59.800781 C 164.304688 59.714844 164.738281 59.671875 165.179688 59.667969 Z M 60.269531 220.382812 C 59.828125 220.382812 59.394531 220.339844 58.960938 220.253906 C 58.53125 220.167969 58.113281 220.042969 57.707031 219.875 C 57.300781 219.707031 56.914062 219.5 56.546875 219.253906 C 56.183594 219.011719 55.84375 218.734375 55.53125 218.421875 C 55.222656 218.113281 54.945312 217.773438 54.699219 217.40625 C 54.457031 217.042969 54.25 216.65625 54.082031 216.25 C 53.914062 215.84375 53.785156 215.425781 53.699219 214.992188 C 53.613281 214.5625 53.570312 214.128906 53.570312 213.6875 C 53.570312 213.246094 53.613281 212.8125 53.699219 212.382812 C 53.785156 211.949219 53.914062 211.53125 54.082031 211.125 C 54.25 210.71875 54.457031 210.332031 54.699219 209.96875 C 54.945312 209.601562 55.222656 209.261719 55.53125 208.953125 C 55.84375 208.640625 56.183594 208.363281 56.546875 208.121094 C 56.914062 207.875 57.300781 207.667969 57.707031 207.5 C 58.113281 207.332031 58.53125 207.207031 58.960938 207.121094 C 59.394531 207.035156 59.828125 206.992188 60.269531 206.992188 C 60.707031 206.992188 61.144531 207.035156 61.574219 207.121094 C 62.003906 207.207031 62.425781 207.332031 62.832031 207.5 C 63.238281 207.667969 63.621094 207.875 63.988281 208.121094 C 64.355469 208.363281 64.691406 208.640625 65.003906 208.953125 C 65.3125 209.261719 65.589844 209.601562 65.835938 209.96875 C 66.078125 210.332031 66.285156 210.71875 66.453125 211.125 C 66.621094 211.53125 66.75 211.949219 66.835938 212.382812 C 66.921875 212.8125 66.964844 213.246094 66.964844 213.6875 C 66.964844 214.128906 66.921875 214.5625 66.835938 214.992188 C 66.75 215.425781 66.621094 215.84375 66.453125 216.25 C 66.285156 216.65625 66.078125 217.039062 65.832031 217.40625 C 65.589844 217.773438 65.3125 218.109375 65 218.421875 C 64.691406 218.730469 64.351562 219.007812 63.988281 219.253906 C 63.621094 219.496094 63.234375 219.703125 62.828125 219.871094 C 62.421875 220.039062 62.003906 220.167969 61.574219 220.253906 C 61.144531 220.339844 60.707031 220.382812 60.269531 220.382812 Z M 93.75 300.742188 C 93.308594 300.742188 92.875 300.699219 92.445312 300.613281 C 92.011719 300.527344 91.59375 300.398438 91.1875 300.230469 C 90.78125 300.0625 90.394531 299.855469 90.03125 299.613281 C 89.664062 299.367188 89.324219 299.089844 89.015625 298.78125 C 88.703125 298.46875 88.425781 298.128906 88.183594 297.765625 C 87.9375 297.398438 87.730469 297.011719 87.5625 296.605469 C 87.394531 296.199219 87.269531 295.78125 87.183594 295.351562 C 87.097656 294.917969 87.054688 294.484375 87.054688 294.042969 C 87.054688 293.605469 87.097656 293.167969 87.183594 292.738281 C 87.269531 292.308594 87.394531 291.886719 87.5625 291.480469 C 87.730469 291.074219 87.9375 290.691406 88.183594 290.324219 C 88.425781 289.957031 88.703125 289.621094 89.015625 289.308594 C 89.324219 289 89.664062 288.722656 90.03125 288.476562 C 90.394531 288.230469 90.78125 288.027344 91.1875 287.859375 C 91.59375 287.691406 92.011719 287.5625 92.445312 287.476562 C 92.875 287.390625 93.308594 287.347656 93.75 287.347656 C 94.191406 287.347656 94.625 287.390625 95.054688 287.476562 C 95.488281 287.5625 95.90625 287.691406 96.3125 287.859375 C 96.71875 288.027344 97.105469 288.230469 97.46875 288.476562 C 97.835938 288.722656 98.175781 289 98.484375 289.308594 C 98.796875 289.621094 99.074219 289.957031 99.316406 290.324219 C 99.5625 290.691406 99.769531 291.074219 99.9375 291.480469 C 100.105469 291.886719 100.230469 292.308594 100.316406 292.738281 C 100.402344 293.167969 100.445312 293.605469 100.445312 294.042969 C 100.445312 294.484375 100.402344 294.917969 100.316406 295.351562 C 100.230469 295.78125 100.101562 296.199219 99.933594 296.605469 C 99.765625 297.011719 99.558594 297.398438 99.316406 297.761719 C 99.070312 298.128906 98.792969 298.46875 98.484375 298.777344 C 98.171875 299.089844 97.835938 299.367188 97.46875 299.609375 C 97.101562 299.855469 96.71875 300.0625 96.3125 300.230469 C 95.90625 300.398438 95.488281 300.523438 95.054688 300.609375 C 94.625 300.699219 94.191406 300.742188 93.75 300.742188 Z M 224.972656 284.050781 C 214.601562 279.042969 204.683594 273.261719 195.21875 266.703125 C 200.835938 262.460938 206.46875 257.894531 212.117188 252.996094 C 219.554688 252.472656 226.761719 251.71875 233.746094 250.738281 C 231.691406 262.070312 228.765625 273.175781 224.972656 284.050781 Z M 187.503906 261.214844 C 184.257812 258.828125 181.007812 256.328125 177.75 253.71875 C 180.980469 253.808594 184.226562 253.867188 187.5 253.867188 C 190.785156 253.867188 194.027344 253.804688 197.25 253.71875 C 194 256.324219 190.75 258.824219 187.503906 261.21875 Z M 235.308594 241.40625 C 231.332031 242.011719 227.277344 242.539062 223.136719 242.996094 C 225.472656 240.785156 227.800781 238.523438 230.117188 236.214844 C 232.4375 233.894531 234.683594 231.558594 236.898438 229.222656 C 236.445312 233.363281 235.914062 237.425781 235.308594 241.410156 Z M 321.429688 193.597656 C 321.429688 213.648438 289.585938 231.457031 244.636719 239.84375 C 245.613281 232.867188 246.367188 225.65625 246.898438 218.199219 C 262.75 200.40625 275.894531 180.792969 286.332031 159.367188 C 308.023438 168.527344 321.429688 180.589844 321.429688 193.597656 Z M 282.203125 98.894531 C 291.398438 108.097656 290.449219 126.105469 281.589844 147.917969 C 259.0625 140.148438 235.898438 135.574219 212.105469 134.199219 C 206.472656 129.308594 200.835938 124.742188 195.203125 120.496094 C 232.917969 94.644531 268.023438 84.722656 282.203125 98.894531 Z M 127.230469 193.597656 C 127.230469 196.878906 127.292969 200.121094 127.378906 203.339844 C 92.164062 159.421875 76.449219 115.246094 92.796875 98.898438 C 101.996094 89.695312 120.007812 90.644531 141.820312 99.503906 C 132.519531 125.0625 127.230469 158.183594 127.230469 193.597656 Z M 136.160156 193.597656 C 136.160156 159.917969 141.277344 127.691406 150.054688 103.148438 C 160.417969 108.15625 170.335938 113.9375 179.796875 120.492188 C 167.453125 129.847656 155.816406 140.011719 144.886719 150.984375 C 144.6875 151.195312 144.511719 151.417969 144.355469 151.664062 C 144.199219 151.90625 144.070312 152.160156 143.964844 152.429688 C 143.859375 152.699219 143.78125 152.976562 143.730469 153.257812 C 143.679688 153.542969 143.65625 153.828125 143.65625 154.117188 C 143.660156 154.40625 143.691406 154.691406 143.75 154.972656 C 143.8125 155.253906 143.894531 155.527344 144.007812 155.792969 C 144.121094 156.058594 144.257812 156.3125 144.417969 156.550781 C 144.578125 156.789062 144.761719 157.011719 144.964844 157.214844 C 145.167969 157.421875 145.390625 157.601562 145.628906 157.761719 C 145.867188 157.925781 146.121094 158.0625 146.386719 158.171875 C 146.652344 158.285156 146.925781 158.371094 147.207031 158.429688 C 147.492188 158.488281 147.777344 158.519531 148.0625 158.523438 C 148.351562 158.527344 148.636719 158.503906 148.921875 158.453125 C 149.207031 158.398438 149.480469 158.320312 149.75 158.214844 C 150.019531 158.113281 150.273438 157.980469 150.519531 157.828125 C 150.761719 157.671875 150.988281 157.496094 151.195312 157.296875 C 162.515625 145.953125 174.617188 135.515625 187.5 125.988281 C 190.742188 128.375 193.988281 130.871094 197.242188 133.480469 C 194.023438 133.390625 190.78125 133.332031 187.5 133.332031 C 187.207031 133.332031 186.917969 133.359375 186.628906 133.417969 C 186.339844 133.472656 186.0625 133.558594 185.792969 133.671875 C 185.519531 133.78125 185.261719 133.917969 185.019531 134.082031 C 184.777344 134.246094 184.550781 134.429688 184.34375 134.636719 C 184.136719 134.84375 183.949219 135.070312 183.789062 135.3125 C 183.625 135.558594 183.488281 135.816406 183.375 136.085938 C 183.261719 136.355469 183.179688 136.636719 183.121094 136.921875 C 183.0625 137.210938 183.035156 137.5 183.035156 137.792969 C 183.035156 138.085938 183.0625 138.378906 183.121094 138.664062 C 183.179688 138.953125 183.261719 139.230469 183.375 139.503906 C 183.488281 139.773438 183.625 140.03125 183.789062 140.273438 C 183.949219 140.519531 184.136719 140.742188 184.34375 140.953125 C 184.550781 141.160156 184.777344 141.34375 185.019531 141.507812 C 185.261719 141.667969 185.519531 141.808594 185.792969 141.917969 C 186.0625 142.03125 186.339844 142.117188 186.628906 142.171875 C 186.917969 142.230469 187.207031 142.257812 187.5 142.257812 C 194.621094 142.257812 201.628906 142.492188 208.488281 142.929688 C 213.648438 147.46875 218.75 152.257812 223.800781 157.296875 C 224.007812 157.503906 224.234375 157.6875 224.476562 157.851562 C 224.722656 158.015625 224.980469 158.152344 225.25 158.265625 C 225.519531 158.378906 225.800781 158.460938 226.085938 158.519531 C 226.375 158.574219 226.664062 158.605469 226.957031 158.605469 C 227.25 158.605469 227.542969 158.574219 227.828125 158.519531 C 228.117188 158.460938 228.398438 158.378906 228.667969 158.265625 C 228.9375 158.152344 229.195312 158.015625 229.4375 157.851562 C 229.683594 157.6875 229.910156 157.503906 230.117188 157.296875 C 230.324219 157.089844 230.507812 156.863281 230.671875 156.621094 C 230.835938 156.375 230.972656 156.117188 231.082031 155.847656 C 231.195312 155.578125 231.28125 155.296875 231.339844 155.011719 C 231.394531 154.722656 231.425781 154.433594 231.425781 154.140625 C 231.425781 153.847656 231.394531 153.554688 231.339844 153.269531 C 231.28125 152.980469 231.195312 152.703125 231.082031 152.429688 C 230.972656 152.160156 230.835938 151.902344 230.671875 151.660156 C 230.507812 151.414062 230.324219 151.1875 230.117188 150.980469 C 227.816406 148.691406 225.484375 146.429688 223.121094 144.199219 C 241.859375 146.082031 260.136719 150.058594 277.960938 156.128906 C 269.648438 173.023438 259.535156 188.761719 247.621094 203.339844 C 247.707031 200.121094 247.769531 196.878906 247.769531 193.597656 C 247.769531 193.304688 247.738281 193.015625 247.683594 192.726562 C 247.625 192.441406 247.539062 192.160156 247.429688 191.890625 C 247.316406 191.617188 247.179688 191.363281 247.015625 191.117188 C 246.851562 190.875 246.667969 190.648438 246.460938 190.441406 C 246.253906 190.234375 246.027344 190.050781 245.785156 189.886719 C 245.539062 189.722656 245.28125 189.585938 245.011719 189.472656 C 244.742188 189.363281 244.460938 189.277344 244.175781 189.21875 C 243.886719 189.164062 243.597656 189.132812 243.304688 189.132812 C 243.011719 189.132812 242.71875 189.164062 242.433594 189.21875 C 242.144531 189.277344 241.867188 189.363281 241.59375 189.472656 C 241.324219 189.585938 241.066406 189.722656 240.824219 189.886719 C 240.578125 190.050781 240.355469 190.234375 240.148438 190.441406 C 239.941406 190.648438 239.753906 190.875 239.589844 191.117188 C 239.429688 191.363281 239.292969 191.617188 239.179688 191.890625 C 239.066406 192.160156 238.980469 192.441406 238.925781 192.726562 C 238.867188 193.015625 238.839844 193.304688 238.839844 193.597656 C 238.839844 200.722656 238.617188 207.71875 238.167969 214.585938 C 233.628906 219.746094 228.839844 224.847656 223.804688 229.898438 C 218.851562 234.851562 213.746094 239.640625 208.488281 244.269531 C 201.628906 244.703125 194.632812 244.929688 187.5 244.941406 C 180.425781 244.941406 173.410156 244.695312 166.5 244.253906 C 161.246094 239.632812 156.144531 234.847656 151.195312 229.902344 C 146.160156 224.867188 141.371094 219.761719 136.828125 214.589844 C 136.394531 207.730469 136.171875 200.730469 136.160156 193.597656 Z M 138.101562 229.222656 C 140.316406 231.558594 142.566406 233.894531 144.882812 236.214844 C 147.199219 238.527344 149.523438 240.785156 151.855469 242.988281 C 147.734375 242.535156 143.679688 242.007812 139.691406 241.410156 C 139.085938 237.429688 138.558594 233.367188 138.101562 229.222656 Z M 141.253906 250.722656 C 148.273438 251.707031 155.488281 252.46875 162.894531 253.003906 C 168.523438 257.890625 174.152344 262.457031 179.78125 266.703125 C 170.316406 273.265625 160.402344 279.054688 150.035156 284.066406 C 146.234375 273.183594 143.308594 262.070312 141.253906 250.726562 Z M 153.269531 292.441406 C 165.273438 286.746094 176.683594 280.042969 187.5 272.328125 C 198.316406 280.042969 209.726562 286.746094 221.726562 292.441406 C 212.570312 314.121094 200.507812 327.523438 187.5 327.523438 C 174.492188 327.523438 162.433594 314.121094 153.269531 292.441406 Z M 107.261719 31.394531 C 107.699219 31.386719 108.136719 31.335938 108.566406 31.242188 C 108.996094 31.148438 109.410156 31.011719 109.8125 30.835938 C 110.21875 30.660156 110.601562 30.449219 110.960938 30.199219 C 111.320312 29.949219 111.65625 29.664062 111.960938 29.347656 C 112.265625 29.03125 112.539062 28.6875 112.773438 28.316406 C 113.011719 27.949219 113.210938 27.558594 113.375 27.148438 C 113.535156 26.738281 113.652344 26.320312 113.730469 25.886719 C 113.808594 25.453125 113.84375 25.019531 113.835938 24.578125 C 113.828125 24.136719 113.777344 23.703125 113.683594 23.273438 C 113.589844 22.84375 113.457031 22.429688 113.28125 22.023438 C 113.105469 21.621094 112.894531 21.238281 112.640625 20.878906 C 112.390625 20.515625 112.109375 20.183594 111.792969 19.878906 C 111.476562 19.574219 111.132812 19.300781 110.761719 19.0625 C 110.390625 18.828125 110.003906 18.628906 109.59375 18.464844 C 109.183594 18.304688 108.761719 18.1875 108.332031 18.109375 C 107.898438 18.03125 107.460938 17.996094 107.023438 18.003906 C 106.582031 18.011719 106.148438 18.0625 105.71875 18.152344 C 105.289062 18.246094 104.871094 18.382812 104.46875 18.558594 C 104.066406 18.734375 103.683594 18.945312 103.324219 19.195312 C 102.960938 19.449219 102.628906 19.730469 102.324219 20.046875 C 102.019531 20.363281 101.746094 20.707031 101.507812 21.078125 C 101.269531 21.445312 101.070312 21.835938 100.910156 22.246094 C 100.75 22.65625 100.628906 23.074219 100.550781 23.507812 C 100.472656 23.941406 100.4375 24.378906 100.445312 24.816406 C 100.453125 25.257812 100.503906 25.691406 100.597656 26.121094 C 100.691406 26.550781 100.828125 26.964844 101.003906 27.371094 C 101.179688 27.773438 101.390625 28.15625 101.640625 28.515625 C 101.894531 28.878906 102.175781 29.210938 102.492188 29.515625 C 102.808594 29.820312 103.152344 30.09375 103.523438 30.332031 C 103.890625 30.566406 104.28125 30.769531 104.691406 30.929688 C 105.097656 31.089844 105.519531 31.210938 105.953125 31.289062 C 106.386719 31.367188 106.820312 31.402344 107.261719 31.394531 Z M 107.082031 21.347656 C 107.527344 21.339844 107.953125 21.417969 108.367188 21.582031 C 108.78125 21.742188 109.148438 21.976562 109.46875 22.285156 C 109.785156 22.59375 110.035156 22.953125 110.210938 23.359375 C 110.390625 23.765625 110.480469 24.191406 110.488281 24.636719 C 110.496094 25.078125 110.421875 25.507812 110.257812 25.921875 C 110.09375 26.335938 109.859375 26.699219 109.550781 27.019531 C 109.242188 27.339844 108.886719 27.589844 108.480469 27.765625 C 108.070312 27.941406 107.648438 28.035156 107.203125 28.042969 C 106.757812 28.050781 106.332031 27.972656 105.917969 27.8125 C 105.503906 27.648438 105.136719 27.414062 104.816406 27.105469 C 104.5 26.796875 104.25 26.441406 104.074219 26.03125 C 103.894531 25.625 103.800781 25.199219 103.792969 24.757812 C 103.789062 24.3125 103.863281 23.882812 104.027344 23.472656 C 104.191406 23.058594 104.425781 22.691406 104.734375 22.371094 C 105.042969 22.054688 105.402344 21.804688 105.808594 21.628906 C 106.214844 21.449219 106.640625 21.359375 107.085938 21.351562 Z M 334.757812 99.105469 C 334.464844 99.105469 334.175781 99.136719 333.886719 99.191406 C 333.601562 99.25 333.320312 99.335938 333.050781 99.445312 C 332.78125 99.558594 332.523438 99.695312 332.277344 99.859375 C 332.035156 100.023438 331.808594 100.207031 331.601562 100.414062 C 331.394531 100.621094 331.210938 100.847656 331.046875 101.089844 C 330.882812 101.335938 330.746094 101.59375 330.632812 101.863281 C 330.523438 102.132812 330.4375 102.414062 330.378906 102.699219 C 330.324219 102.988281 330.292969 103.277344 330.292969 103.570312 C 330.292969 103.863281 330.324219 104.15625 330.378906 104.441406 C 330.4375 104.730469 330.523438 105.007812 330.632812 105.28125 C 330.746094 105.550781 330.882812 105.808594 331.046875 106.050781 C 331.210938 106.296875 331.394531 106.519531 331.601562 106.726562 C 331.808594 106.933594 332.035156 107.121094 332.277344 107.285156 C 332.523438 107.445312 332.78125 107.582031 333.050781 107.695312 C 333.320312 107.808594 333.601562 107.894531 333.886719 107.949219 C 334.175781 108.007812 334.464844 108.035156 334.757812 108.035156 C 335.050781 108.035156 335.34375 108.007812 335.628906 107.949219 C 335.917969 107.894531 336.195312 107.808594 336.46875 107.695312 C 336.738281 107.582031 336.996094 107.445312 337.238281 107.285156 C 337.484375 107.121094 337.707031 106.933594 337.914062 106.726562 C 338.121094 106.519531 338.308594 106.296875 338.472656 106.050781 C 338.632812 105.808594 338.769531 105.550781 338.882812 105.28125 C 338.996094 105.007812 339.082031 104.730469 339.136719 104.441406 C 339.195312 104.15625 339.222656 103.863281 339.222656 103.570312 C 339.222656 103.277344 339.195312 102.988281 339.136719 102.699219 C 339.078125 102.414062 338.996094 102.132812 338.882812 101.863281 C 338.769531 101.59375 338.632812 101.335938 338.46875 101.09375 C 338.308594 100.847656 338.121094 100.625 337.914062 100.417969 C 337.707031 100.207031 337.480469 100.023438 337.238281 99.859375 C 336.996094 99.699219 336.738281 99.558594 336.464844 99.449219 C 336.195312 99.335938 335.917969 99.25 335.628906 99.195312 C 335.34375 99.136719 335.050781 99.109375 334.757812 99.105469 Z M 334.757812 105.804688 C 334.464844 105.804688 334.179688 105.746094 333.90625 105.632812 C 333.632812 105.519531 333.390625 105.359375 333.179688 105.148438 C 332.972656 104.941406 332.808594 104.699219 332.695312 104.425781 C 332.582031 104.152344 332.527344 103.867188 332.527344 103.570312 C 332.527344 103.277344 332.582031 102.992188 332.695312 102.71875 C 332.808594 102.445312 332.972656 102.203125 333.179688 101.992188 C 333.390625 101.785156 333.632812 101.621094 333.90625 101.507812 C 334.179688 101.394531 334.464844 101.339844 334.757812 101.339844 C 335.054688 101.339844 335.339844 101.394531 335.613281 101.507812 C 335.886719 101.621094 336.128906 101.785156 336.335938 101.992188 C 336.546875 102.203125 336.707031 102.445312 336.820312 102.71875 C 336.933594 102.992188 336.992188 103.277344 336.992188 103.570312 C 336.992188 103.867188 336.933594 104.152344 336.820312 104.425781 C 336.707031 104.699219 336.546875 104.941406 336.335938 105.148438 C 336.128906 105.359375 335.886719 105.519531 335.613281 105.632812 C 335.339844 105.746094 335.054688 105.804688 334.757812 105.804688 Z M 10.417969 22.46875 C 10.125 22.46875 9.832031 22.496094 9.546875 22.554688 C 9.257812 22.613281 8.980469 22.695312 8.710938 22.808594 C 8.4375 22.921875 8.179688 23.058594 7.9375 23.222656 C 7.695312 23.382812 7.46875 23.570312 7.261719 23.777344 C 7.054688 23.984375 6.867188 24.210938 6.707031 24.453125 C 6.542969 24.695312 6.40625 24.953125 6.292969 25.226562 C 6.179688 25.496094 6.097656 25.773438 6.039062 26.0625 C 5.980469 26.347656 5.953125 26.640625 5.953125 26.933594 C 5.953125 27.226562 5.980469 27.515625 6.039062 27.804688 C 6.097656 28.089844 6.179688 28.371094 6.292969 28.640625 C 6.40625 28.914062 6.542969 29.167969 6.707031 29.414062 C 6.867188 29.65625 7.054688 29.882812 7.261719 30.089844 C 7.46875 30.296875 7.695312 30.480469 7.9375 30.644531 C 8.179688 30.808594 8.4375 30.945312 8.710938 31.058594 C 8.980469 31.167969 9.257812 31.253906 9.546875 31.3125 C 9.832031 31.367188 10.125 31.398438 10.417969 31.398438 C 10.710938 31.398438 11 31.367188 11.289062 31.3125 C 11.574219 31.253906 11.855469 31.167969 12.125 31.058594 C 12.398438 30.945312 12.652344 30.808594 12.898438 30.644531 C 13.140625 30.480469 13.367188 30.296875 13.574219 30.089844 C 13.78125 29.882812 13.964844 29.65625 14.128906 29.414062 C 14.292969 29.167969 14.429688 28.914062 14.542969 28.640625 C 14.652344 28.371094 14.738281 28.089844 14.796875 27.804688 C 14.851562 27.515625 14.882812 27.226562 14.882812 26.933594 C 14.882812 26.640625 14.851562 26.351562 14.796875 26.0625 C 14.738281 25.773438 14.652344 25.496094 14.539062 25.226562 C 14.429688 24.953125 14.289062 24.699219 14.128906 24.453125 C 13.964844 24.210938 13.78125 23.984375 13.574219 23.777344 C 13.367188 23.570312 13.140625 23.386719 12.898438 23.222656 C 12.652344 23.058594 12.394531 22.921875 12.125 22.808594 C 11.855469 22.699219 11.574219 22.613281 11.289062 22.554688 C 11 22.496094 10.710938 22.46875 10.417969 22.46875 Z M 10.417969 29.164062 C 10.121094 29.164062 9.835938 29.109375 9.5625 28.996094 C 9.289062 28.882812 9.046875 28.71875 8.839844 28.511719 C 8.628906 28.300781 8.46875 28.0625 8.355469 27.789062 C 8.242188 27.515625 8.183594 27.230469 8.183594 26.933594 C 8.183594 26.636719 8.242188 26.351562 8.355469 26.078125 C 8.46875 25.804688 8.628906 25.5625 8.839844 25.355469 C 9.046875 25.144531 9.289062 24.984375 9.5625 24.871094 C 9.835938 24.757812 10.121094 24.699219 10.417969 24.699219 C 10.714844 24.699219 11 24.757812 11.273438 24.871094 C 11.546875 24.984375 11.785156 25.144531 11.996094 25.355469 C 12.207031 25.5625 12.367188 25.804688 12.480469 26.078125 C 12.59375 26.351562 12.648438 26.636719 12.648438 26.933594 C 12.648438 27.230469 12.59375 27.511719 12.480469 27.785156 C 12.367188 28.058594 12.203125 28.300781 11.996094 28.511719 C 11.785156 28.71875 11.542969 28.882812 11.269531 28.996094 C 10.996094 29.109375 10.714844 29.164062 10.417969 29.164062 Z M 332.523438 7.585938 C 332.230469 7.585938 331.9375 7.617188 331.652344 7.671875 C 331.363281 7.730469 331.085938 7.816406 330.8125 7.925781 C 330.542969 8.039062 330.285156 8.175781 330.042969 8.339844 C 329.796875 8.503906 329.574219 8.6875 329.367188 8.894531 C 329.160156 9.101562 328.972656 9.328125 328.808594 9.570312 C 328.648438 9.816406 328.511719 10.070312 328.398438 10.34375 C 328.285156 10.613281 328.199219 10.894531 328.144531 11.179688 C 328.085938 11.46875 328.058594 11.757812 328.058594 12.050781 C 328.058594 12.34375 328.085938 12.636719 328.144531 12.921875 C 328.199219 13.210938 328.285156 13.488281 328.398438 13.757812 C 328.511719 14.03125 328.648438 14.289062 328.808594 14.53125 C 328.972656 14.773438 329.160156 15 329.367188 15.207031 C 329.574219 15.414062 329.796875 15.601562 330.042969 15.761719 C 330.285156 15.925781 330.542969 16.0625 330.8125 16.175781 C 331.085938 16.289062 331.363281 16.371094 331.652344 16.429688 C 331.9375 16.488281 332.230469 16.515625 332.523438 16.515625 C 332.816406 16.515625 333.105469 16.488281 333.394531 16.429688 C 333.679688 16.371094 333.960938 16.289062 334.230469 16.175781 C 334.5 16.0625 334.757812 15.925781 335.003906 15.761719 C 335.246094 15.601562 335.472656 15.414062 335.679688 15.207031 C 335.886719 15 336.070312 14.773438 336.234375 14.53125 C 336.398438 14.289062 336.535156 14.03125 336.648438 13.757812 C 336.757812 13.488281 336.84375 13.210938 336.902344 12.921875 C 336.957031 12.636719 336.988281 12.34375 336.988281 12.050781 C 336.984375 11.757812 336.957031 11.46875 336.898438 11.179688 C 336.84375 10.894531 336.757812 10.613281 336.644531 10.34375 C 336.535156 10.074219 336.394531 9.816406 336.234375 9.570312 C 336.070312 9.328125 335.886719 9.101562 335.679688 8.894531 C 335.46875 8.6875 335.246094 8.503906 335 8.339844 C 334.757812 8.179688 334.5 8.039062 334.230469 7.929688 C 333.960938 7.816406 333.679688 7.730469 333.394531 7.671875 C 333.105469 7.617188 332.816406 7.585938 332.523438 7.585938 Z M 332.523438 14.285156 C 332.226562 14.285156 331.941406 14.226562 331.667969 14.113281 C 331.394531 14 331.152344 13.839844 330.945312 13.628906 C 330.734375 13.421875 330.574219 13.179688 330.460938 12.90625 C 330.347656 12.632812 330.289062 12.347656 330.289062 12.050781 C 330.289062 11.753906 330.347656 11.46875 330.460938 11.195312 C 330.574219 10.921875 330.734375 10.683594 330.945312 10.472656 C 331.152344 10.265625 331.394531 10.101562 331.667969 9.988281 C 331.941406 9.875 332.226562 9.820312 332.523438 9.820312 C 332.816406 9.820312 333.101562 9.875 333.375 9.988281 C 333.648438 10.101562 333.890625 10.265625 334.101562 10.472656 C 334.308594 10.683594 334.472656 10.921875 334.585938 11.195312 C 334.699219 11.46875 334.753906 11.753906 334.753906 12.050781 C 334.753906 12.347656 334.699219 12.632812 334.582031 12.90625 C 334.46875 13.179688 334.308594 13.417969 334.101562 13.628906 C 333.890625 13.839844 333.648438 14 333.375 14.113281 C 333.101562 14.226562 332.816406 14.28125 332.523438 14.285156 Z M 61.011719 84.222656 C 61.011719 83.929688 60.984375 83.640625 60.925781 83.351562 C 60.867188 83.066406 60.785156 82.785156 60.671875 82.515625 C 60.558594 82.242188 60.421875 81.988281 60.257812 81.742188 C 60.097656 81.5 59.910156 81.273438 59.703125 81.066406 C 59.496094 80.859375 59.269531 80.675781 59.027344 80.511719 C 58.785156 80.347656 58.527344 80.210938 58.253906 80.097656 C 57.984375 79.988281 57.707031 79.902344 57.417969 79.84375 C 57.128906 79.789062 56.839844 79.757812 56.546875 79.757812 C 56.253906 79.757812 55.964844 79.789062 55.675781 79.84375 C 55.386719 79.902344 55.109375 79.988281 54.839844 80.097656 C 54.566406 80.210938 54.308594 80.347656 54.066406 80.511719 C 53.824219 80.675781 53.597656 80.859375 53.390625 81.066406 C 53.183594 81.273438 52.996094 81.5 52.835938 81.742188 C 52.671875 81.988281 52.535156 82.242188 52.421875 82.515625 C 52.308594 82.785156 52.226562 83.066406 52.167969 83.351562 C 52.109375 83.640625 52.082031 83.929688 52.082031 84.222656 C 52.082031 84.515625 52.109375 84.808594 52.167969 85.09375 C 52.226562 85.382812 52.308594 85.660156 52.421875 85.929688 C 52.535156 86.203125 52.671875 86.460938 52.835938 86.703125 C 52.996094 86.945312 53.183594 87.171875 53.390625 87.378906 C 53.597656 87.585938 53.824219 87.773438 54.066406 87.933594 C 54.308594 88.097656 54.566406 88.234375 54.839844 88.347656 C 55.109375 88.460938 55.386719 88.542969 55.675781 88.601562 C 55.964844 88.660156 56.253906 88.6875 56.546875 88.6875 C 56.839844 88.6875 57.128906 88.660156 57.417969 88.601562 C 57.703125 88.542969 57.984375 88.457031 58.253906 88.347656 C 58.523438 88.234375 58.78125 88.097656 59.027344 87.933594 C 59.269531 87.769531 59.496094 87.585938 59.703125 87.378906 C 59.910156 87.171875 60.09375 86.945312 60.257812 86.703125 C 60.421875 86.457031 60.558594 86.203125 60.671875 85.929688 C 60.78125 85.660156 60.867188 85.382812 60.925781 85.09375 C 60.980469 84.804688 61.011719 84.515625 61.011719 84.222656 Z M 54.316406 84.222656 C 54.316406 83.925781 54.371094 83.640625 54.484375 83.367188 C 54.597656 83.09375 54.757812 82.855469 54.96875 82.644531 C 55.179688 82.433594 55.417969 82.273438 55.691406 82.160156 C 55.964844 82.046875 56.25 81.992188 56.546875 81.992188 C 56.84375 81.992188 57.128906 82.046875 57.402344 82.160156 C 57.675781 82.273438 57.914062 82.433594 58.125 82.644531 C 58.335938 82.855469 58.496094 83.09375 58.609375 83.367188 C 58.722656 83.640625 58.777344 83.925781 58.777344 84.222656 C 58.777344 84.519531 58.722656 84.804688 58.609375 85.078125 C 58.496094 85.351562 58.335938 85.59375 58.125 85.800781 C 57.914062 86.011719 57.675781 86.171875 57.402344 86.285156 C 57.128906 86.398438 56.84375 86.457031 56.546875 86.457031 C 56.25 86.453125 55.964844 86.398438 55.691406 86.285156 C 55.417969 86.171875 55.179688 86.011719 54.96875 85.800781 C 54.761719 85.589844 54.597656 85.351562 54.484375 85.078125 C 54.371094 84.804688 54.316406 84.519531 54.316406 84.222656 Z M 54.316406 84.222656 " fill-opacity="1" fill-rule="nonzero"/><path fill="#004aad" d="M 24.304688 151.210938 L 27.621094 146.847656 L 25.527344 145.660156 L 23.394531 150.550781 L 23.324219 150.550781 L 21.160156 145.695312 L 19.027344 146.917969 L 22.3125 151.179688 L 22.3125 151.246094 L 17.175781 150.585938 L 17.175781 152.960938 L 22.347656 152.296875 L 22.347656 152.367188 L 19.027344 156.625 L 21.019531 157.882812 L 23.289062 152.960938 L 23.359375 152.960938 L 25.457031 157.847656 L 27.65625 156.589844 L 24.304688 152.398438 L 24.304688 152.332031 L 29.574219 152.960938 L 29.574219 150.585938 L 24.304688 151.285156 Z M 260.597656 59.042969 L 258.683594 61.496094 L 259.832031 62.222656 L 261.140625 59.382812 L 261.179688 59.382812 L 262.386719 62.199219 L 263.652344 61.476562 L 261.722656 59.0625 L 261.722656 59.023438 L 264.761719 59.382812 L 264.761719 58.015625 L 261.722656 58.417969 L 261.722656 58.378906 L 263.636719 55.863281 L 262.429688 55.179688 L 261.199219 57.996094 L 261.160156 57.996094 L 259.914062 55.199219 L 258.683594 55.902344 L 260.578125 58.359375 L 260.578125 58.398438 L 257.621094 58.015625 L 257.621094 59.382812 L 260.597656 59.003906 Z M 369.753906 52.847656 L 369.753906 50.519531 L 364.582031 51.199219 L 364.582031 51.132812 L 367.839844 46.851562 L 365.785156 45.6875 L 363.695312 50.480469 L 363.621094 50.480469 L 361.503906 45.722656 L 359.410156 46.917969 L 362.632812 51.101562 L 362.632812 51.167969 L 357.59375 50.519531 L 357.59375 52.847656 L 362.664062 52.195312 L 362.664062 52.261719 L 359.410156 56.441406 L 361.363281 57.675781 L 363.589844 52.847656 L 363.65625 52.847656 L 365.710938 57.644531 L 367.871094 56.410156 L 364.582031 52.296875 L 364.582031 52.230469 Z M 220.238281 11.992188 L 223.046875 8.300781 L 221.273438 7.292969 L 219.472656 11.429688 L 219.410156 11.429688 L 217.582031 7.324219 L 215.773438 8.355469 L 218.554688 11.964844 L 218.554688 12.023438 L 214.207031 11.460938 L 214.207031 13.46875 L 218.582031 12.910156 L 218.582031 12.96875 L 215.773438 16.570312 L 217.460938 17.636719 L 219.382812 13.46875 L 219.441406 13.46875 L 221.210938 17.605469 L 223.074219 16.542969 L 220.238281 12.996094 L 220.238281 12.9375 L 224.699219 13.46875 L 224.699219 11.460938 L 220.238281 12.050781 Z M 220.238281 11.992188 " fill-opacity="1" fill-rule="nonzero"/></svg>